<svg xmlns="http://www.w3.org/2000/svg" viewBox="0 0 1600 900" preserveAspectRatio="xMidYMid slice">
  <defs>
    <linearGradient id="wall" x1="0" y1="0" x2="1" y2="1">
      <stop offset="0%" stop-color="#f7f1e7"/>
      <stop offset="55%" stop-color="#eef3e8"/>
      <stop offset="100%" stop-color="#dce9d9"/>
    </linearGradient>
    <linearGradient id="floor" x1="0" y1="0" x2="0" y2="1">
      <stop offset="0%" stop-color="#d7b98c"/>
      <stop offset="100%" stop-color="#b98f5d"/>
    </linearGradient>
    <filter id="soft">
      <feGaussianBlur stdDeviation="12"/>
    </filter>
  </defs>
  <rect width="1600" height="900" fill="url(#wall)"/>
  <rect x="0" y="640" width="1600" height="260" fill="url(#floor)"/>
  <path d="M0 675 L1600 620 L1600 900 L0 900 Z" fill="#caa06a" opacity="0.36"/>
  <g opacity="0.24" stroke="#8f673c" stroke-width="3">
    <path d="M60 700 C230 665 390 695 570 660"/>
    <path d="M210 780 C430 725 620 770 860 710"/>
    <path d="M870 835 C1080 790 1260 830 1520 755"/>
  </g>
  <rect x="1020" y="230" width="410" height="300" rx="16" fill="#fffdf7" opacity="0.78"/>
  <rect x="1050" y="260" width="350" height="240" rx="10" fill="#cfe3cc"/>
  <path d="M1050 500 C1125 410 1190 460 1255 390 C1320 318 1370 420 1400 365 L1400 500 Z" fill="#7eaa72" opacity="0.76"/>
  <g transform="translate(1215 535)">
    <rect x="0" y="0" width="84" height="88" rx="12" fill="#c98755"/>
    <path d="M-18 0 C8 -52 76 -56 103 0 Z" fill="#4f8a56"/>
    <path d="M15 -10 C25 -78 72 -76 83 -8" fill="none" stroke="#3b7045" stroke-width="18" stroke-linecap="round"/>
  </g>
  <g transform="translate(925 575)">
    <rect x="0" y="0" width="190" height="36" rx="18" fill="#8d6740"/>
    <rect x="18" y="28" width="18" height="98" rx="7" fill="#6f4f32"/>
    <rect x="154" y="28" width="18" height="98" rx="7" fill="#6f4f32"/>
  </g>
</svg>
